<svg xmlns="http://www.w3.org/2000/svg" viewBox="0 0 153.943 38.184" height="144.318" width="581.831"><path d="M19.04 4.572h6.945V.405H0V5.15h4.601v16.087h5.324V5.151h3.791v16.087h12.502v-4.165h-7.179V12.5h6.049V8.334h-6.049z"/><path d="M65.638 17.07v-4.569h6.046V8.334h-6.046V4.572h6.945V.405H54.438l-5.853 9.374V.405h-5.318v1.981a10.848 10.848 0 00-4.78-2.185c-6.163-1.13-11.489 2.603-12.529 8.681a12.142 12.142 0 00.088 4.572c1.301 5.961 6.614 9.403 12.935 7.959a10.369 10.369 0 004.289-2.138v1.963h5.315v-9.983l6.54 9.983h17.683v-4.167zM43.27 18.617l-2.294-3.44a5.924 5.924 0 01-4.89 1.448c-2.807-.434-4.746-2.646-4.83-5.586-.146-3.85 3.174-6.654 7.087-5.82a6.932 6.932 0 011.101.346 5.77 5.77 0 011.535.897l2.294-3.326zm10.705-8.144l6.35-9.715v18.89zM116.29 12.356l.346-.087c3.009-.897 4.689-3.617 3.85-7.263-.693-3.008-2.953-4.601-7.263-4.601h-25.96v10.157a14.534 14.534 0 00.346 2.715l.233 1.243.116.53-.23-.638-.405-1.014c-.693-1.764-.868-2.17-1.1-2.46L78.96.405h-5.385v20.833H78.9V10.734c0-.23-.058-.53-.434-2.49l-.233-1.13-.146-.75c.204.608.434 1.214.667 1.793.693 1.677.868 1.998 1.043 2.257l7.522 10.821h5.239V5.151h3.823v16.09h5.323V5.15h3.794v16.09h5.324v-8.684l4.918 8.681h6.192zm-1.188-4.572c-.318 1.302-1.273 2.053-2.98 2.053h-1.301V4.572h1.476c2.111.029 3.228 1.296 2.807 3.212z"/><path d="M121.005.405h5.323v12.01c0 2.91.635 3.934 2.458 4.232a4.085 4.085 0 001.188 0c1.823-.288 2.46-1.301 2.487-4.233V.404h5.292V12.84c0 6.395-3.559 9.724-10.1 8.731-4.571-.666-6.654-3.357-6.654-8.73zM138.96.405h7.257c5.236 0 7.755 2.286 7.726 6.8-.03 4.368-2.432 6.712-6.946 6.712h-2.714v7.321h-5.324zm6.799 9.231c1.765 0 2.778-.955 2.807-2.519a2.44 2.44 0 00-.722-1.823c-.492-.434-1.013-.608-2.027-.608h-1.534v4.947zM4.622 27.916h2.382c1.606 0 2.667.363 3.616 1.172 1.342 1.117 1.982 2.91 1.633 4.874a4.86 4.86 0 01-.71 1.83c-.962 1.467-2.317 2.178-4.188 2.178H4.622zm2.794 8.977c2.096 0 3.784-1.661 3.77-4.008-.029-2.262-1.717-3.895-3.992-3.895H5.826v7.903zM17.605 29.173a5.374 5.374 0 014.747-1.381 5.167 5.167 0 012.686 1.38 5.228 5.228 0 011.465 2.71 5.31 5.31 0 01-1.465 4.845 5.186 5.186 0 01-3.705 1.452 5.151 5.151 0 01-5.291-5.236 5.186 5.186 0 011.563-3.77zm.35 6.117a4.083 4.083 0 006.744 0 3.844 3.844 0 00.603-1.482 4.114 4.114 0 00-.614-3.196 4.075 4.075 0 00-6.744 0 3.998 3.998 0 00-.698 2.331 4.043 4.043 0 00.709 2.347zM31.858 29.173a5.374 5.374 0 014.747-1.381 5.167 5.167 0 012.696 1.38 5.23 5.23 0 011.466 2.71 5.313 5.313 0 01-1.466 4.845 5.188 5.188 0 01-3.704 1.452 5.151 5.151 0 01-5.292-5.236 5.186 5.186 0 011.553-3.77zm.35 6.117a4.083 4.083 0 006.744 0 3.836 3.836 0 00.614-1.479 4.114 4.114 0 00-.614-3.196 4.075 4.075 0 00-6.744 0 3.998 3.998 0 00-.699 2.33 4.043 4.043 0 00.699 2.345zM44.91 27.916h2.22c1.913 0 2.974.794 3.239 2.22.307 1.704-.49 2.91-2.08 3.323a1.873 1.873 0 01-.264.056l3.029 4.453h-1.479l-3.463-5.21v5.21H44.91zm2.136 4.802c1.188 0 1.912-.545 2.116-1.423a1.942 1.942 0 00-.447-1.815c-.378-.35-.794-.503-1.587-.503h-1.006v3.741zM61.412 35.457l.167.293a2.662 2.662 0 001.48 1.188 3.252 3.252 0 00.39.098 2.19 2.19 0 001.467-.293c1.058-.686 1.116-2.04.362-2.646a5.863 5.863 0 00-1.283-.67c-.111-.055-.222-.098-.336-.153-.545-.222-.794-.32-1.006-.418-1.788-.836-2.193-2.96-.754-4.342.627-.6 1.48-.865 2.646-.712a2.94 2.94 0 011.662.823 3.331 3.331 0 01.473.6c.056.085.111.167.167.265l-1.058.53c-.03-.072-.07-.14-.098-.196a1.886 1.886 0 00-1.397-.98 1.807 1.807 0 00-1.3.239 1.5 1.5 0 00-.32 2.262c.265.265.503.405 1.607.852a2.278 2.278 0 01.32.14c2.429 1.059 3.085 2.696 1.9 4.482-.644.963-1.747 1.466-3.268 1.323a3.44 3.44 0 01-2.625-1.717 3.785 3.785 0 01-.182-.336zM72.287 29.173a5.374 5.374 0 014.746-1.381 5.167 5.167 0 012.694 1.38 5.226 5.226 0 011.466 2.71 5.31 5.31 0 01-1.466 4.845 5.186 5.186 0 01-3.704 1.452 5.151 5.151 0 01-5.292-5.236 5.186 5.186 0 011.556-3.77zm.35 6.117a4.085 4.085 0 006.743 0 3.842 3.842 0 00.614-1.479 4.117 4.117 0 00-.614-3.196 4.075 4.075 0 00-6.744 0 3.998 3.998 0 00-.698 2.33 4.043 4.043 0 00.698 2.345zM85.341 27.916h1.202v8.996h3.254v1.058H85.34zM93.408 27.916h1.215v6.033c0 2.066.571 2.85 1.968 3.071a2.791 2.791 0 00.964 0c1.397-.222 1.955-1.005 1.955-3.071v-6.033h1.198v6.157c0 2.471-.963 3.741-2.947 4.048a3.969 3.969 0 01-1.41 0c-1.998-.336-2.948-1.587-2.948-4.048zM104.116 27.916h6.268v1.159h-2.532v8.895h-1.214v-8.895h-2.527zM113.792 27.916h1.204V37.97h-1.201zM120.605 29.173a5.371 5.371 0 014.747-1.381 5.167 5.167 0 012.696 1.38 5.228 5.228 0 011.466 2.71 5.313 5.313 0 01-1.466 4.845 5.188 5.188 0 01-3.704 1.452 5.151 5.151 0 01-5.292-5.236 5.186 5.186 0 011.553-3.77zm.35 6.117a4.083 4.083 0 006.743 0 3.834 3.834 0 00.614-1.479 4.114 4.114 0 00-.616-3.199 4.075 4.075 0 00-6.744 0 3.998 3.998 0 00-.699 2.331 4.043 4.043 0 00.701 2.347zM133.657 27.916h1.019l6.143 7.408a3.44 3.44 0 01.656 1.059 1.947 1.947 0 01-.055-.28 5.916 5.916 0 01-.125-1.059V27.9h1.218v10.054h-.993l-6.199-7.43a3.508 3.508 0 01-.63-.991l.043.251a5.82 5.82 0 01.124.95v7.218h-1.201zM147.032 35.457l.166.293a2.662 2.662 0 001.48 1.188 3.238 3.238 0 00.39.098 2.188 2.188 0 001.467-.293c1.058-.686 1.116-2.04.362-2.646a5.871 5.871 0 00-1.286-.67c-.11-.055-.222-.098-.336-.153-.545-.222-.793-.32-1.005-.418-1.786-.836-2.19-2.96-.754-4.342.627-.6 1.479-.865 2.646-.712a2.94 2.94 0 011.661.823 3.344 3.344 0 01.474.6c.055.085.11.167.166.265l-1.058.53c-.029-.072-.069-.14-.098-.196a1.89 1.89 0 00-1.397-.98 1.807 1.807 0 00-1.299.239 1.5 1.5 0 00-.32 2.262c.265.265.503.405 1.606.852a2.249 2.249 0 01.32.14c2.43 1.059 3.085 2.696 1.9 4.482-.643.963-1.746 1.466-3.268 1.323a3.44 3.44 0 01-2.624-1.717c-.07-.111-.125-.222-.183-.336z"/></svg>