<?xml version="1.0" encoding="UTF-8"?>
<svg xmlns="http://www.w3.org/2000/svg" width="10em" height="2.5em" viewBox="0 0 410 97" class="css-1j8o68f">
                        <defs id="SvgjsDefs1497"></defs>
                        <g id="SvgjsG1498" featurekey="symbolContainer" transform="matrix(1,0,0,1,0,0)" fill="#ffffff">
                            <rect width="90" height="97" rx="8"></rect>
                        </g>
                        <g id="SvgjsG1499" featurekey="monogramFeature-0" transform="matrix(1.5234613182487355,0,0,1.5234613182487355,20.0000015436913,-9.647399113344399)" fill="#be3144">
                            <path
                                d="M14.34 24.840000000000003 l0.06 6.48 c0 2.58 4.02 2.7 4.02 0.06 l0 -6.48 c0 -2.64 -3.96 -2.76 -4.08 -0.06 z M0.72 16.560000000000002 l0 0 c0.06 -0.06 30.72 -0.48 30.84 -0.36 c0.84 0.78 1.26 9.06 1.26 18.12 c-1.26 1.2 -2.76 1.38 -3 1.44 c-2.34 0.24 -2.46 3.42 -0.3 3.9 c1.38 0.36 3.06 1.8 3.3 2.4 c-0.18 8.76 -0.54 16.56 -1.08 17.04 c-1.26 1.08 -30.42 1.38 -31.2 0 c-1.2 -2.22 -0.06 -42.48 0.18 -42.54 z M14.16 42.54 l-0.12 7.32 c-0.06 2.64 3.96 2.7 4.02 0.06 l0.18 -7.26 c0 -2.7 -4.02 -2.76 -4.08 -0.12 z">
                            </path>
                        </g>
                        <g id="SvgjsG1500" featurekey="nameFeature-0" transform="matrix(1.0463169598310464,0,0,1.0463169598310464,107.48883869769813,17.737165949228974)" fill="#ffffff">
                            <path
                                d="M17.84 24.48 c2.96 0.8 5.76 3.44 5.76 7.32 c0 5.08 -3.2 8.2 -10.16 8.2 l-11.04 0 l0 -28 l10.44 0 c5.8 0 8.72 3.28 8.72 7.04 c0 2.96 -1.92 4.64 -3.72 5.44 z M12.28 17.12 l-4.04 0 l0 5.64 l4.04 0 c2.48 0 3.48 -1.16 3.48 -2.84 c0 -1.8 -1.16 -2.8 -3.48 -2.8 z M13.12 34.88 c3.2 0 4.64 -1.32 4.64 -3.8 c0 -2.12 -1.44 -3.6 -4.88 -3.6 l-4.64 0 l0 7.4 l4.88 0 z M37.32 18.84 c4.72 0 11.24 3.56 10 12.76 l-15.12 0 c0.72 2.6 2.88 3.96 5.68 3.96 c2.6 0 3.6 -0.6 5.08 -1.4 l3.16 3.08 c-1.8 1.88 -4.36 3.16 -8.44 3.16 c-5.2 0 -11.28 -3.56 -11.28 -10.72 c0 -7.28 6.2 -10.84 10.92 -10.84 z M37.32 23.72 c-2.08 0 -4.28 1.28 -5.04 3.84 l10 0 c-0.64 -2.56 -2.92 -3.84 -4.96 -3.84 z M65.47999999999999 40 l-7.16 -8.32 l-1.64 1.72 l0 6.6 l-5.72 0 l0 -7.4 l0 -20.88 l5.72 0 l0 14.68 l6.68 -7.2 l6.84 0 l-8.36 8.76 l10.24 12.04 l-6.6 0 z M102.19999999999999 18.88 c4.32 0 8.24 2.8 8.24 9.76 l0 11.36 l-5.72 0 l0 -11.24 c0 -2.88 -1.32 -4.88 -4.28 -4.88 c-2.68 0 -4.36 2.28 -4.88 4.4 l0 11.72 l-5.72 0 l0 -11.24 c0 -2.88 -1.8 -4.88 -4.28 -4.88 c-2.8 0 -4.44 2 -4.88 4.4 l0 11.72 l-5.72 0 l0 -20.8 l5.72 0 l0 4 c0.12 -1.08 2.16 -4.32 6.32 -4.32 c2.96 0 5.92 1.6 7.52 4.68 c0.56 -1.32 2.96 -4.68 7.68 -4.68 z M129.68 19.2 l5.72 0 l0 20.8 l-5.72 0 l0 -2.56 c-0.12 0.84 -2.16 2.96 -5.76 2.96 c-4.76 0 -10.28 -3.44 -10.28 -10.84 c0 -7.16 5.52 -10.72 10.28 -10.72 c3.6 0 5.64 2.24 5.76 2.68 l0 -2.32 z M124.72 35.32 c2.8 0 5.24 -1.92 5.24 -5.76 c0 -3.72 -2.44 -5.64 -5.24 -5.64 c-2.88 0 -5.52 1.96 -5.52 5.64 c0 3.8 2.64 5.76 5.52 5.76 z M151.92 18.88 c3.96 0 7.88 2.6 7.88 9.16 l0 11.96 l-5.72 0 l0 -11.56 c0 -3.4 -1.32 -4.56 -3.52 -4.56 c-3.04 0 -4.84 2.88 -5.28 4.32 l0 11.8 l-5.72 0 l0 -20.8 l5.72 0 l0 3.84 c0.4 -1.08 2.64 -4.16 6.64 -4.16 z M191.04 19.2 l5.72 0 l0 20.8 c0 6.32 -6.2 8.24 -10.72 8.24 c-2.4 0 -4.4 -0.48 -5.64 -1.16 l0 -4.68 c1.24 0.68 3.16 1.08 5.64 1.08 c3.68 0 5 -1.96 5 -3.48 l0 -2.56 c-0.12 0.84 -2.16 2.96 -5.76 2.96 c-4.76 0 -10.28 -3.44 -10.28 -10.84 c0 -7.16 5.52 -10.72 10.28 -10.72 c3.6 0 5.64 2.24 5.76 2.68 l0 -2.32 z M186.07999999999998 35.32 c2.8 0 5.24 -1.92 5.24 -5.76 c0 -3.72 -2.44 -5.64 -5.24 -5.64 c-2.88 0 -5.52 1.96 -5.52 5.64 c0 3.8 2.64 5.76 5.52 5.76 z M213.84 18.88 c0.52 0 1 0 1.52 0.12 l0 5.48 c-0.48 -0.12 -0.96 -0.12 -1.36 -0.12 c-3.84 0 -7 2.76 -7.36 6.76 l0 8.88 l-5.72 0 l0 -20.8 l5.72 0 l0 5.2 c0.92 -3.16 3.44 -5.52 7.2 -5.52 z M228.88 18.84 c4.72 0 10.88 3.56 10.88 10.84 s-6.16 10.72 -10.88 10.72 s-10.92 -3.44 -10.92 -10.72 s6.2 -10.84 10.92 -10.84 z M228.88 23.92 c-2.6 0 -5.36 1.96 -5.36 5.76 c0 3.68 2.76 5.64 5.36 5.64 c2.56 0 5.36 -1.96 5.36 -5.64 c0 -3.8 -2.8 -5.76 -5.36 -5.76 z M250.84 40.32 c-3.96 0 -7.88 -2.6 -7.88 -9.16 l0 -11.96 l5.72 0 l0 11.56 c0 3.4 1.32 4.56 3.52 4.56 c3.04 0 4.84 -2.88 5.28 -4.32 l0 -11.8 l5.72 0 l0 20.8 l-5.72 0 l0 -3.84 c-0.4 1.08 -2.64 4.16 -6.64 4.16 z M278.84 18.84 c4.76 0 10.28 3.56 10.28 10.72 c0 7.4 -5.52 10.84 -10.28 10.84 c-3.6 0 -5.64 -2.12 -5.76 -2.96 l0 10.16 l-5.72 0 l0 -12.24 l0 -16.16 l5.72 0 l0 2.32 c0.12 -0.44 2.16 -2.68 5.76 -2.68 z M278.03999999999996 35.32 c2.88 0 5.52 -1.96 5.52 -5.76 c0 -3.68 -2.64 -5.64 -5.52 -5.64 c-2.8 0 -5.24 1.92 -5.24 5.64 c0 3.84 2.44 5.76 5.24 5.76 z">
                            </path>
                        </g>
                    </svg>